<svg xmlns="http://www.w3.org/2000/svg" xmlns:xlink="http://www.w3.org/1999/xlink" version="1.1" x="0px" y="0px" viewBox="0 0 33 41.25" enable-background="new 0 0 33 33" xml:space="preserve"><path d="M30.842,14.019L25.535,9.9V5.642c0-0.328-0.271-0.6-0.602-0.6h-2.676c-0.326,0-0.596,0.271-0.596,0.6v1.256L18.01,4.064  c-0.873-0.674-2.148-0.674-3.023,0.002l-12.83,9.953c-0.742,0.574-0.875,1.643-0.301,2.383c0.574,0.742,1.643,0.877,2.385,0.301  l1.768-1.373v13.111c0,0.551,0.449,1,1,1h6.744v-8.834h5.494v8.834h6.748c0.547,0,0.996-0.449,0.996-1V15.33l1.768,1.373  c0.313,0.242,0.678,0.357,1.043,0.357c0.504,0,1.008-0.227,1.342-0.658C31.717,15.662,31.584,14.593,30.842,14.019z"/><text x="0" y="48" fill="#000000" font-size="5px" font-weight="bold" font-family="'Helvetica Neue', Helvetica, Arial-Unicode, Arial, Sans-serif">Created by Thuy Nguyen</text><text x="0" y="53" fill="#000000" font-size="5px" font-weight="bold" font-family="'Helvetica Neue', Helvetica, Arial-Unicode, Arial, Sans-serif">from the Noun Project</text></svg>